HIERARCHY
ROOT Hips
{
	OFFSET 0.000000 0.000000 0.000000
	CHANNELS 6 Xposition Yposition Zposition Zrotation Yrotation Xrotation 
	JOINT Spine1
	{
		OFFSET -0.013727 5.003764 -0.053727
		CHANNELS 3 Zrotation Yrotation Xrotation
		JOINT Spine2
		{
			OFFSET -0.000000 7.125302 -0.029825
			CHANNELS 3 Zrotation Yrotation Xrotation
			JOINT Chest
			{
				OFFSET -0.000001 7.550063 -0.815971
				CHANNELS 3 Zrotation Yrotation Xrotation
				JOINT Neck1
				{
					OFFSET -0.181676 26.311296 -0.553348
					CHANNELS 3 Zrotation Yrotation Xrotation
					JOINT Neck2
					{
						OFFSET -0.000003 7.709399 2.302586
						CHANNELS 3 Zrotation Yrotation Xrotation
						JOINT Head
						{
							OFFSET -0.000004 6.128913 1.953709
							CHANNELS 3 Zrotation Yrotation Xrotation
							JOINT HeadEnd
							{
								OFFSET 0.003598 16.065401 -1.835379
								CHANNELS 3 Zrotation Yrotation Xrotation
								End Site
								{
									OFFSET 0.000000 0.000000 0.000000
								}
							}
							JOINT Jaw
							{
								OFFSET 0.002637 0.475592 3.094940
								CHANNELS 3 Zrotation Yrotation Xrotation
								End Site
								{
									OFFSET 0.000000 0.000000 0.000000
								}
							}
							JOINT LeftEye
							{
								OFFSET 3.206381 5.380208 7.586883
								CHANNELS 3 Zrotation Yrotation Xrotation
								End Site
								{
									OFFSET 0.000000 0.000000 0.000000
								}
							}
							JOINT RightEye
							{
								OFFSET -3.222440 5.361867 7.558233
								CHANNELS 3 Zrotation Yrotation Xrotation
								End Site
								{
									OFFSET 0.000000 0.000000 0.000000
								}
							}
						}
					}
				}
				JOINT LeftShoulder
				{
					OFFSET 1.621652 23.237164 5.113413
					CHANNELS 3 Zrotation Yrotation Xrotation
					JOINT LeftArm
					{
						OFFSET 14.919845 0.000000 -5.502326
						CHANNELS 3 Zrotation Yrotation Xrotation
						JOINT LeftForeArm
						{
							OFFSET 28.739309 0.000004 -0.002588
							CHANNELS 3 Zrotation Yrotation Xrotation
							JOINT LeftHand
							{
								OFFSET 27.093983 -0.000004 0.002610
								CHANNELS 3 Zrotation Yrotation Xrotation
								JOINT LeftHandThumb1
								{
									OFFSET 2.276481 -1.392045 3.191413
									CHANNELS 3 Zrotation Yrotation Xrotation
									JOINT LeftHandThumb2
									{
										OFFSET 4.012841 -1.828126 1.641655
										CHANNELS 3 Zrotation Yrotation Xrotation
										JOINT LeftHandThumb3
										{
											OFFSET 2.798516 0.000001 -0.000003
											CHANNELS 3 Zrotation Yrotation Xrotation
											JOINT LeftHandThumbEnd
											{
												OFFSET 3.180792 -0.000001 0.000003
												CHANNELS 3 Zrotation Yrotation Xrotation
												End Site
												{
													OFFSET 0.000000 0.000000 0.000000
												}
											}
										}
									}
								}
								JOINT LeftHandIndex1
								{
									OFFSET 3.247553 -0.531998 2.296169
									CHANNELS 3 Zrotation Yrotation Xrotation
									JOINT LeftHandIndex2
									{
										OFFSET 6.364580 0.012062 0.178600
										CHANNELS 3 Zrotation Yrotation Xrotation
										JOINT LeftHandIndex3
										{
											OFFSET 3.662366 0.000001 -0.000000
											CHANNELS 3 Zrotation Yrotation Xrotation
											JOINT LeftHandIndex4
											{
												OFFSET 2.329242 0.000002 0.000005
												CHANNELS 3 Zrotation Yrotation Xrotation
												JOINT LeftHandIndexEnd
												{
													OFFSET 2.759619 -0.180539 -0.113024
													CHANNELS 3 Zrotation Yrotation Xrotation
													End Site
													{
														OFFSET 0.000000 0.000000 0.000000
													}
												}
											}
										}
									}
								}
								JOINT LeftHandMiddle1
								{
									OFFSET 3.163498 0.240981 1.000332
									CHANNELS 3 Zrotation Yrotation Xrotation
									JOINT LeftHandMiddle2
									{
										OFFSET 6.190778 -0.259276 -1.002548
										CHANNELS 3 Zrotation Yrotation Xrotation
										JOINT LeftHandMiddle3
										{
											OFFSET 4.356523 -0.000006 0.000000
											CHANNELS 3 Zrotation Yrotation Xrotation
											JOINT LeftHandMiddle4
											{
												OFFSET 2.996875 -0.000007 0.000001
												CHANNELS 3 Zrotation Yrotation Xrotation
												JOINT LeftHandMiddleEnd
												{
													OFFSET 2.304294 -0.294571 -0.031740
													CHANNELS 3 Zrotation Yrotation Xrotation
													End Site
													{
														OFFSET 0.000000 0.000000 0.000000
													}
												}
											}
										}
									}
								}
								JOINT LeftHandRing1
								{
									OFFSET 2.882642 -0.053650 -0.322544
									CHANNELS 3 Zrotation Yrotation Xrotation
									JOINT LeftHandRing2
									{
										OFFSET 5.854542 -0.486203 -1.373841
										CHANNELS 3 Zrotation Yrotation Xrotation
										JOINT LeftHandRing3
										{
											OFFSET 4.350581 0.000001 0.000003
											CHANNELS 3 Zrotation Yrotation Xrotation
											JOINT LeftHandRing4
											{
												OFFSET 2.651325 0.000007 0.000003
												CHANNELS 3 Zrotation Yrotation Xrotation
												JOINT LeftHandRingEnd
												{
													OFFSET 1.936111 0.077685 -0.000070
													CHANNELS 3 Zrotation Yrotation Xrotation
													End Site
													{
														OFFSET 0.000000 0.000000 0.000000
													}
												}
											}
										}
									}
								}
								JOINT LeftHandPinky1
								{
									OFFSET 2.865499 -0.310004 -1.600378
									CHANNELS 3 Zrotation Yrotation Xrotation
									JOINT LeftHandPinky2
									{
										OFFSET 5.087854 -1.331142 -1.771231
										CHANNELS 3 Zrotation Yrotation Xrotation
										JOINT LeftHandPinky3
										{
											OFFSET 3.070975 0.000003 0.000000
											CHANNELS 3 Zrotation Yrotation Xrotation
											JOINT LeftHandPinky4
											{
												OFFSET 1.549668 -0.000000 0.000001
												CHANNELS 3 Zrotation Yrotation Xrotation
												JOINT LeftHandPinkyEnd
												{
													OFFSET 1.944895 -0.157801 0.057219
													CHANNELS 3 Zrotation Yrotation Xrotation
													End Site
													{
														OFFSET 0.000000 0.000000 0.000000
													}
												}
											}
										}
									}
								}
							}
						}
					}
				}
				JOINT RightShoulder
				{
					OFFSET -1.380118 23.180307 5.214157
					CHANNELS 3 Zrotation Yrotation Xrotation
					JOINT RightArm
					{
						OFFSET -15.037197 0.000011 -5.545604
						CHANNELS 3 Zrotation Yrotation Xrotation
						JOINT RightForeArm
						{
							OFFSET -28.736639 0.000003 -0.002597
							CHANNELS 3 Zrotation Yrotation Xrotation
							JOINT RightHand
							{
								OFFSET -27.133619 0.000000 0.002613
								CHANNELS 3 Zrotation Yrotation Xrotation
								JOINT RightHandThumb1
								{
									OFFSET -2.274036 -1.383990 3.163128
									CHANNELS 3 Zrotation Yrotation Xrotation
									JOINT RightHandThumb2
									{
										OFFSET -4.011429 -1.827467 1.640914
										CHANNELS 3 Zrotation Yrotation Xrotation
										JOINT RightHandThumb3
										{
											OFFSET -2.794935 -0.000004 -0.000003
											CHANNELS 3 Zrotation Yrotation Xrotation
											JOINT RightHandThumbEnd
											{
												OFFSET -3.183855 0.000003 -0.000000
												CHANNELS 3 Zrotation Yrotation Xrotation
												End Site
												{
													OFFSET 0.000000 0.000000 0.000000
												}
											}
										}
									}
								}
								JOINT RightHandIndex1
								{
									OFFSET -3.253269 -0.520059 2.282866
									CHANNELS 3 Zrotation Yrotation Xrotation
									JOINT RightHandIndex2
									{
										OFFSET -6.341918 0.012473 0.178265
										CHANNELS 3 Zrotation Yrotation Xrotation
										JOINT RightHandIndex3
										{
											OFFSET -3.654873 -0.000009 -0.000001
											CHANNELS 3 Zrotation Yrotation Xrotation
											JOINT RightHandIndex4
											{
												OFFSET -2.327586 0.000000 0.000000
												CHANNELS 3 Zrotation Yrotation Xrotation
												JOINT RightHandIndexEnd
												{
													OFFSET -2.761789 -0.180657 -0.113078
													CHANNELS 3 Zrotation Yrotation Xrotation
													End Site
													{
														OFFSET 0.000000 0.000000 0.000000
													}
												}
											}
										}
									}
								}
								JOINT RightHandMiddle1
								{
									OFFSET -3.168106 0.246593 1.001030
									CHANNELS 3 Zrotation Yrotation Xrotation
									JOINT RightHandMiddle2
									{
										OFFSET -6.180830 -0.258835 -1.000896
										CHANNELS 3 Zrotation Yrotation Xrotation
										JOINT RightHandMiddle3
										{
											OFFSET -4.348906 -0.000000 -0.000001
											CHANNELS 3 Zrotation Yrotation Xrotation
											JOINT RightHandMiddle4
											{
												OFFSET -3.000243 -0.000004 -0.000002
												CHANNELS 3 Zrotation Yrotation Xrotation
												JOINT RightHandMiddleEnd
												{
													OFFSET -2.302518 -0.294371 -0.031706
													CHANNELS 3 Zrotation Yrotation Xrotation
													End Site
													{
														OFFSET 0.000000 0.000000 0.000000
													}
												}
											}
										}
									}
								}
								JOINT RightHandRing1
								{
									OFFSET -2.885693 -0.067952 -0.308858
									CHANNELS 3 Zrotation Yrotation Xrotation
									JOINT RightHandRing2
									{
										OFFSET -5.854197 -0.486132 -1.373732
										CHANNELS 3 Zrotation Yrotation Xrotation
										JOINT RightHandRing3
										{
											OFFSET -4.338814 -0.000004 -0.000001
											CHANNELS 3 Zrotation Yrotation Xrotation
											JOINT RightHandRing4
											{
												OFFSET -2.654906 -0.000005 0.000004
												CHANNELS 3 Zrotation Yrotation Xrotation
												JOINT RightHandRingEnd
												{
													OFFSET -1.933569 0.077524 -0.000052
													CHANNELS 3 Zrotation Yrotation Xrotation
													End Site
													{
														OFFSET 0.000000 0.000000 0.000000
													}
												}
											}
										}
									}
								}
								JOINT RightHandPinky1
								{
									OFFSET -2.866429 -0.342798 -1.584145
									CHANNELS 3 Zrotation Yrotation Xrotation
									JOINT RightHandPinky2
									{
										OFFSET -5.091371 -1.332054 -1.772385
										CHANNELS 3 Zrotation Yrotation Xrotation
										JOINT RightHandPinky3
										{
											OFFSET -3.062666 -0.000006 0.000001
											CHANNELS 3 Zrotation Yrotation Xrotation
											JOINT RightHandPinky4
											{
												OFFSET -1.546527 0.000005 -0.000002
												CHANNELS 3 Zrotation Yrotation Xrotation
												JOINT RightHandPinkyEnd
												{
													OFFSET -1.945121 -0.157723 0.057211
													CHANNELS 3 Zrotation Yrotation Xrotation
													End Site
													{
														OFFSET 0.000000 0.000000 0.000000
													}
												}
											}
										}
									}
								}
							}
						}
					}
				}
			}
		}
	}
	JOINT LeftLeg
	{
		OFFSET 10.043214 -8.434526 2.595655
		CHANNELS 3 Zrotation Yrotation Xrotation
		JOINT LeftShin
		{
			OFFSET -0.000001 -43.221752 -0.802913
			CHANNELS 3 Zrotation Yrotation Xrotation
			JOINT LeftFoot
			{
				OFFSET 0.000002 -42.155094 -3.481523
				CHANNELS 3 Zrotation Yrotation Xrotation
				JOINT LeftToeBase
				{
					OFFSET 0.000000 -5.059475 13.231529
					CHANNELS 3 Zrotation Yrotation Xrotation
					JOINT LeftToeEnd
					{
						OFFSET -0.009607 -1.647615 6.513017
						CHANNELS 3 Zrotation Yrotation Xrotation
						End Site
						{
							OFFSET 0.000000 0.000000 0.000000
						}
					}
				}
			}
		}
	}
	JOINT RightLeg
	{
		OFFSET -10.047277 -8.295259 2.620317
		CHANNELS 3 Zrotation Yrotation Xrotation
		JOINT RightShin
		{
			OFFSET 0.000001 -43.362209 -0.805556
			CHANNELS 3 Zrotation Yrotation Xrotation
			JOINT RightFoot
			{
				OFFSET 0.000002 -42.117393 -3.478398
				CHANNELS 3 Zrotation Yrotation Xrotation
				JOINT RightToeBase
				{
					OFFSET -0.000001 -5.079609 13.284196
					CHANNELS 3 Zrotation Yrotation Xrotation
					JOINT RightToeEnd
					{
						OFFSET 0.009532 -1.634383 6.460591
						CHANNELS 3 Zrotation Yrotation Xrotation
						End Site
						{
							OFFSET 0.000000 0.000000 0.000000
						}
					}
				}
			}
		}
	}
}
MOTION
Frames: 4
Frame Time: 0.033333
2.350271 98.289703 5.415935 -2.343816 0.271278 1.241864 3.224698 0.602125 0.412850 -0.006282 0.290994 -5.092905 2.826808 -2.314470 15.813695 -11.675351 11.472946 18.714281 1.422783 8.145988 -3.293611 -8.491867 11.320459 9.013430 0.000077 -0.000022 0.000004 0.080412 -0.114737 -0.131651 0.858177 -3.879268 -10.754818 -0.696764 3.627494 -10.728379 20.200018 -17.890022 8.144090 -93.965660 -32.890671 -20.512175 179.889694 -31.989521 179.686920 -3.055041 -19.895611 -0.531228 -5.882100 9.861277 0.702590 -10.936857 -0.360575 7.156196 0.000002 8.774814 -0.000001 -16.593752 17.570740 5.939943 -1.844029 2.498502 -2.507276 -10.163589 4.678939 4.621103 -20.975992 -0.000004 0.000001 -21.226254 2.451691 -3.593993 0.000002 -0.000006 -0.000000 -1.362681 2.240796 -0.746323 -21.334892 0.584908 3.008320 -13.821193 -0.000003 0.000002 -23.887129 -0.249079 -0.839481 -61.014076 1.983692 -1.154298 -0.294024 1.679686 0.833255 -14.218190 0.093214 1.300579 -34.212002 -0.287565 0.967169 -20.033178 0.964534 1.212842 -0.000000 -0.000000 -0.000000 -3.440385 0.788232 0.501655 -15.928165 -3.167306 2.999703 -6.338816 -0.000001 0.000001 -18.123413 3.648175 -4.905661 -0.000004 -0.000000 -0.000002 -10.841716 26.143179 9.803480 98.090050 44.774849 24.148207 -178.442200 46.062336 -178.933044 -8.321661 14.245453 -5.563842 2.243540 -5.255031 -3.180157 14.282877 -0.826595 6.952496 -0.000002 -12.690590 0.000001 16.949018 -18.401659 2.922397 1.665664 -1.955920 -2.878295 4.727793 -4.170582 4.993918 11.020510 0.000003 -0.000001 12.109032 -3.735710 -2.866782 0.000000 0.000001 0.000001 1.291984 -1.928548 -1.498088 14.800114 0.567466 3.865603 14.242553 -1.341736 -6.660648 19.631939 0.143924 -0.648244 50.355362 -1.166886 -6.067855 0.353029 -1.511150 -0.031941 20.222765 3.684304 2.316629 18.787245 0.000004 0.000002 10.751610 -0.479870 1.397905 -0.000000 -0.000001 0.000001 3.273804 0.305946 -0.580108 21.486788 11.830360 2.266130 8.162917 0.000001 0.000000 18.399050 -3.798979 -4.940567 0.000003 -0.000001 -0.000002 15.695882 28.691492 -16.503857 -0.257608 -0.936439 8.866624 -16.288559 -5.221151 21.518362 1.681460 -1.843378 -1.554499 0.000000 -0.000001 0.000001 -5.053354 -7.339765 0.621883 -0.037366 0.397317 12.539779 8.047132 -0.715556 -11.245845 -1.427011 0.938297 -1.264839 -0.000000 -0.000000 -0.000001 
2.472883 98.295654 5.528655 -2.303589 0.261622 1.165474 3.240928 0.579739 0.465046 0.047493 0.241616 -5.117489 2.860263 -2.325181 15.906246 -11.703134 11.427807 18.646206 1.384974 8.203387 -3.264418 -8.567148 11.440545 9.048400 0.000077 -0.000024 0.000007 0.079647 -0.110972 -0.122788 0.854149 -3.878653 -10.779887 -0.697128 3.641071 -10.759352 20.264942 -17.949726 8.185884 -94.130005 -32.882645 -20.352961 179.711624 -31.851021 179.838669 -3.079087 -19.876724 -0.894556 -5.882100 9.861277 0.702591 -10.936859 -0.360575 7.156197 0.000001 8.774812 -0.000000 -16.669617 17.593721 5.944722 -1.844030 2.498502 -2.507275 -10.163589 4.678940 4.621104 -20.975994 -0.000003 0.000003 -21.226255 2.451693 -3.593992 -0.000000 -0.000006 -0.000001 -1.362679 2.240796 -0.746323 -21.334892 0.584909 3.008321 -13.821193 -0.000002 0.000003 -23.887129 -0.249077 -0.839480 -61.133186 1.910072 -1.170413 -0.294025 1.679686 0.833255 -14.218192 0.093215 1.300580 -34.212002 -0.287562 0.967171 -20.033175 0.964536 1.212842 -0.000000 -0.000000 -0.000000 -3.440386 0.788232 0.501656 -15.928167 -3.167305 2.999704 -6.338815 -0.000001 0.000001 -18.123411 3.648177 -4.905659 -0.000005 0.000000 -0.000002 -10.856801 26.177752 9.935140 98.166679 44.815968 24.308777 -178.505432 45.978008 -178.962952 -8.322876 14.217155 -5.611036 2.243540 -5.255032 -3.180156 14.282878 -0.826593 6.952495 -0.000003 -12.690590 0.000001 16.895590 -18.330143 2.950924 1.665665 -1.955920 -2.878298 4.727795 -4.170583 4.993917 11.020513 0.000004 -0.000001 12.109034 -3.735709 -2.866781 0.000000 0.000001 0.000000 1.291985 -1.928547 -1.498087 14.800113 0.567469 3.865602 14.242554 -1.341733 -6.660650 19.631939 0.143925 -0.648243 50.275604 -1.208246 -5.999154 0.353028 -1.511150 -0.031939 20.222771 3.684307 2.316628 18.787249 0.000006 0.000001 10.751610 -0.479867 1.397906 0.000001 -0.000000 0.000001 3.273805 0.305947 -0.580109 21.486795 11.830362 2.266130 8.162918 0.000002 0.000000 18.399054 -3.798978 -4.940565 0.000002 0.000000 -0.000002 15.676753 28.574440 -16.797390 -0.248921 -0.896017 9.771701 -16.165833 -5.175257 21.214556 1.682384 -1.874833 -1.578178 0.000000 -0.000000 0.000002 -5.203912 -7.290764 0.908713 -0.041029 0.336699 12.278784 8.122075 -0.605980 -11.125005 -1.430787 0.923550 -1.319732 0.000000 0.000000 -0.000001 
2.484156 98.238487 5.522170 -2.296105 0.336191 1.073912 3.275662 0.567268 0.518439 0.063806 0.209377 -5.114495 2.906943 -2.343584 15.978525 -11.655668 11.314067 18.603729 1.384881 8.212749 -3.253147 -8.641973 11.575737 8.996147 0.000076 -0.000023 0.000006 0.101557 -0.132514 -0.121534 0.877777 -3.904421 -10.789082 -0.669093 3.622347 -10.762073 20.305088 -18.025730 8.200230 -94.137802 -32.884560 -20.185705 179.580139 -31.779161 179.951431 -3.161524 -19.852865 -0.995678 -5.882102 9.861278 0.702590 -10.936858 -0.360575 7.156197 0.000002 8.774812 -0.000000 -16.673101 17.584690 5.956075 -1.844030 2.498503 -2.507276 -10.163591 4.678940 4.621104 -20.975994 -0.000004 0.000001 -21.226255 2.451691 -3.593994 0.000002 -0.000006 -0.000000 -1.362681 2.240797 -0.746323 -21.334890 0.584908 3.008319 -13.821197 -0.000003 0.000002 -23.887133 -0.249079 -0.839482 -61.258667 1.919623 -1.236192 -0.294026 1.679686 0.833255 -14.218190 0.093214 1.300578 -34.212006 -0.287564 0.967169 -20.033180 0.964534 1.212841 -0.000000 0.000000 -0.000000 -3.440385 0.788233 0.501655 -15.928173 -3.167306 2.999703 -6.338818 -0.000001 0.000001 -18.123415 3.648175 -4.905662 -0.000005 0.000000 -0.000002 -10.787681 26.172499 10.005884 98.133575 44.864517 24.398680 -178.510590 46.031040 -178.968781 -8.265248 14.301599 -5.763439 2.243540 -5.255032 -3.180155 14.282878 -0.826594 6.952497 -0.000002 -12.690590 0.000000 16.792938 -18.225777 3.007192 1.665666 -1.955919 -2.878295 4.727795 -4.170582 4.993919 11.020513 0.000003 0.000001 12.109032 -3.735709 -2.866779 0.000000 0.000001 0.000001 1.291984 -1.928548 -1.498089 14.800111 0.567468 3.865604 14.242553 -1.341735 -6.660647 19.631939 0.143925 -0.648242 50.230350 -1.246409 -5.937077 0.353029 -1.511150 -0.031941 20.222769 3.684304 2.316629 18.787247 0.000005 -0.000001 10.751611 -0.479868 1.397904 0.000000 0.000000 -0.000001 3.273804 0.305947 -0.580109 21.486794 11.830360 2.266130 8.162918 0.000001 0.000000 18.399054 -3.798980 -4.940567 0.000001 0.000001 -0.000001 15.680159 28.567207 -17.016897 -0.239852 -0.872214 10.319547 -16.124435 -5.197094 20.972198 1.682210 -1.906535 -1.546590 0.000000 0.000001 0.000002 -5.237413 -7.362869 0.944498 -0.047327 0.317902 12.439234 8.097209 -0.440753 -11.354898 -1.432434 0.917885 -1.316414 0.000000 0.000000 -0.000001 
2.477989 98.151978 5.478004 -2.313761 0.449427 0.982799 3.312468 0.558596 0.566152 0.062297 0.170611 -5.100862 2.961029 -2.392799 16.064869 -11.585737 11.208292 18.598936 1.382013 8.179426 -3.275871 -8.667691 11.677033 8.930819 0.000076 -0.000023 0.000006 0.119993 -0.152951 -0.122225 0.893248 -3.924277 -10.812571 -0.646236 3.601658 -10.776411 20.275425 -18.031822 8.239737 -94.106934 -32.915977 -19.963207 179.504089 -31.730879 -179.974579 -3.249504 -19.811926 -0.936546 -5.882100 9.861279 0.702590 -10.936862 -0.360575 7.156198 0.000001 8.774817 -0.000002 -16.665152 17.536461 5.977949 -1.844031 2.498503 -2.507276 -10.163589 4.678940 4.621104 -20.975996 -0.000004 0.000003 -21.226255 2.451693 -3.593994 -0.000000 -0.000006 -0.000000 -1.362679 2.240797 -0.746322 -21.334894 0.584908 3.008321 -13.821198 -0.000003 0.000003 -23.887131 -0.249078 -0.839480 -61.328922 1.945941 -1.286127 -0.294024 1.679686 0.833255 -14.218194 0.093214 1.300579 -34.212006 -0.287564 0.967172 -20.033180 0.964535 1.212843 -0.000000 0.000000 0.000000 -3.440386 0.788232 0.501655 -15.928171 -3.167307 2.999705 -6.338817 -0.000001 0.000002 -18.123415 3.648177 -4.905661 -0.000004 -0.000000 -0.000002 -10.707195 26.115280 9.988186 98.129791 44.927597 24.430765 -178.598526 46.145695 -179.035782 -8.204641 14.328141 -6.018837 2.243540 -5.255031 -3.180156 14.282877 -0.826593 6.952495 -0.000003 -12.690588 0.000001 16.734884 -18.163977 3.046335 1.665665 -1.955920 -2.878298 4.727794 -4.170584 4.993918 11.020513 0.000003 -0.000002 12.109033 -3.735709 -2.866777 -0.000001 0.000001 -0.000000 1.291984 -1.928547 -1.498088 14.800113 0.567466 3.865602 14.242554 -1.341734 -6.660646 19.631939 0.143926 -0.648244 50.242725 -1.259155 -5.891342 0.353028 -1.511150 -0.031938 20.222771 3.684306 2.316627 18.787249 0.000006 0.000000 10.751612 -0.479868 1.397906 -0.000000 -0.000001 0.000001 3.273804 0.305947 -0.580110 21.486797 11.830362 2.266128 8.162916 0.000001 -0.000001 18.399055 -3.798978 -4.940570 0.000003 0.000001 -0.000001 15.691278 28.612915 -17.327995 -0.239471 -0.848584 10.950844 -16.107698 -5.341089 20.690990 1.683167 -1.909027 -1.533218 0.000000 -0.000000 0.000001 -5.235689 -7.463613 0.893819 -0.038436 0.302812 12.742570 8.087993 -0.299615 -11.717405 -1.434510 0.924317 -1.266967 -0.000000 0.000000 -0.000001 
